<svg width="19" height="20" viewBox="0 0 19 20" fill="none" xmlns="http://www.w3.org/2000/svg">
<path d="M9.5 0C8.7743 0 8.08985 0.139744 7.44661 0.419236C6.80338 0.698727 6.24262 1.07686 5.76432 1.55364C5.28602 2.03042 4.90669 2.58939 4.6263 3.23058C4.36241 3.85533 4.23047 4.5376 4.23047 5.27744C4.23047 6.00083 4.36241 6.6831 4.6263 7.32429C4.90669 7.96548 5.28602 8.52034 5.76432 8.9889C6.24262 9.45746 6.80338 9.83148 7.44661 10.111C8.08985 10.3905 8.7743 10.5302 9.5 10.5302C10.2257 10.5302 10.9102 10.3905 11.5534 10.111C12.1966 9.83148 12.7574 9.45746 13.2357 8.9889C13.714 8.52034 14.0933 7.96548 14.3737 7.32429C14.6376 6.6831 14.7695 6.00083 14.7695 5.27744C14.7695 4.5376 14.6376 3.85533 14.3737 3.23058C14.0933 2.58939 13.714 2.03042 13.2357 1.55364C12.7574 1.07686 12.1966 0.698727 11.5534 0.419236C10.9102 0.139744 10.2257 0 9.5 0ZM9.5 8.43403C8.62586 8.43403 7.87956 8.12577 7.26107 7.50925C6.64258 6.89272 6.33333 6.14879 6.33333 5.27744C6.33333 4.40608 6.64258 3.66215 7.26107 3.04562C7.87956 2.4291 8.62586 2.12084 9.5 2.12084C10.3741 2.12084 11.1204 2.4291 11.7389 3.04562C12.3574 3.66215 12.6667 4.40608 12.6667 5.27744C12.6667 6.14879 12.3574 6.89272 11.7389 7.50925C11.1204 8.12577 10.3741 8.43403 9.5 8.43403ZM19 20V18.9396C19 17.9203 18.8103 16.9667 18.431 16.0789C18.0352 15.1911 17.5033 14.4143 16.8353 13.7485C16.1673 13.0826 15.388 12.5524 14.4974 12.1578C13.5903 11.7797 12.6254 11.5906 11.6029 11.5906H7.39714C6.37456 11.5906 5.40973 11.7797 4.5026 12.1578C3.61197 12.5524 2.83269 13.0826 2.16471 13.7485C1.49674 14.4143 0.964845 15.1911 0.56901 16.0789C0.189668 16.9667 0 17.9203 0 18.9396V20H2.10286V18.9396C2.10286 18.2162 2.24305 17.5339 2.52344 16.8927C2.80382 16.2515 3.18316 15.6967 3.66146 15.2281C4.13976 14.7596 4.70052 14.3855 5.34375 14.106C5.97049 13.8266 6.65494 13.6868 7.39714 13.6868H11.6029C12.3451 13.6868 13.0295 13.8266 13.6563 14.106C14.2995 14.3855 14.8602 14.7596 15.3385 15.2281C15.8168 15.6967 16.1962 16.2515 16.4766 16.8927C16.7569 17.5339 16.8971 18.2162 16.8971 18.9396V20H19Z" fill="white"/>
</svg>
