<svg width="421" height="124" viewBox="0 0 421 124" fill="none" xmlns="http://www.w3.org/2000/svg">
<path d="M299.125 78.748C299.125 81.1124 298.67 83.5037 297.759 85.9218C296.848 88.34 295.215 91.1343 292.858 94.3048C290.554 97.4752 287.313 101.398 283.135 106.073L273.171 117.197V118.003H299.125V121.872H266.019V118.325C271.537 112.629 276.064 107.793 279.599 103.816C283.188 99.8397 286.027 96.508 288.117 93.8211C290.206 91.0806 291.733 88.8236 292.697 87.0503C293.661 85.2233 294.277 83.6917 294.545 82.4558C294.813 81.1661 294.947 79.9302 294.947 78.748C294.947 75.685 293.875 73.24 291.733 71.4129C289.643 69.5859 286.697 68.6723 282.894 68.6723C280.912 68.6723 278.956 68.9679 277.028 69.559C275.099 70.0963 273.331 70.7949 271.724 71.6547C270.171 72.4608 268.858 73.3205 267.787 74.2341H266.984V69.8814C268.376 68.7529 270.439 67.5707 273.171 66.3348C275.956 65.0988 279.305 64.4808 283.215 64.4808C285.572 64.4808 287.715 64.8033 289.643 65.4481C291.625 66.0392 293.313 66.9259 294.706 68.1081C296.152 69.2903 297.25 70.7681 298 72.5414C298.75 74.3147 299.125 76.3836 299.125 78.748Z" fill="#BA0A2E"/>
<path d="M304.216 99.1411V88.0982C304.216 84.0679 304.725 80.575 305.743 77.6195C306.76 74.664 308.18 72.2189 310.001 70.2844C311.876 68.2962 313.992 66.8453 316.349 65.9318C318.76 64.9645 321.331 64.4808 324.063 64.4808C326.795 64.4808 329.34 64.9645 331.697 65.9318C334.108 66.8453 336.224 68.2962 338.045 70.2844C339.92 72.2189 341.366 74.664 342.384 77.6195C343.402 80.575 343.911 84.0679 343.911 88.0982V99.1411C343.911 103.171 343.402 106.691 342.384 109.7C341.366 112.656 339.92 115.101 338.045 117.035C336.224 118.97 334.108 120.421 331.697 121.388C329.34 122.355 326.795 122.839 324.063 122.839C321.331 122.839 318.76 122.355 316.349 121.388C313.992 120.421 311.876 118.97 310.001 117.035C308.18 115.101 306.76 112.656 305.743 109.7C304.725 106.691 304.216 103.171 304.216 99.1411ZM308.555 99.1411C308.555 105.267 309.921 110.103 312.653 113.65C315.439 117.197 319.242 118.97 324.063 118.97C328.724 118.97 332.474 117.197 335.313 113.65C338.152 110.103 339.572 105.267 339.572 99.1411V88.0982C339.572 81.7572 338.152 76.8941 335.313 73.5086C332.474 70.0695 328.724 68.3499 324.063 68.3499C319.242 68.3499 315.439 70.0695 312.653 73.5086C309.921 76.8941 308.555 81.7572 308.555 88.0982V99.1411Z" fill="#BA0A2E"/>
<path d="M380.424 78.748C380.424 81.1124 379.969 83.5037 379.058 85.9218C378.148 88.34 376.514 91.1343 374.157 94.3048C371.853 97.4752 368.612 101.398 364.434 106.073L354.47 117.197V118.003H380.424V121.872H347.318V118.325C352.836 112.629 357.363 107.793 360.898 103.816C364.487 99.8397 367.326 96.508 369.416 93.8211C371.505 91.0806 373.032 88.8236 373.996 87.0503C374.96 85.2233 375.576 83.6917 375.844 82.4558C376.112 81.1661 376.246 79.9302 376.246 78.748C376.246 75.685 375.174 73.24 373.032 71.4129C370.942 69.5859 367.996 68.6723 364.193 68.6723C362.211 68.6723 360.255 68.9679 358.327 69.559C356.398 70.0963 354.63 70.7949 353.023 71.6547C351.47 72.4608 350.157 73.3205 349.086 74.2341H348.283V69.8814C349.675 68.7529 351.738 67.5707 354.47 66.3348C357.255 65.0988 360.604 64.4808 364.514 64.4808C366.871 64.4808 369.014 64.8033 370.942 65.4481C372.924 66.0392 374.612 66.9259 376.005 68.1081C377.451 69.2903 378.549 70.7681 379.299 72.5414C380.049 74.3147 380.424 76.3836 380.424 78.748Z" fill="#BA0A2E"/>
<path d="M409.75 121.872V69.4784L387.653 101.237V102.204H421V106.073H382.269V101.882L407.661 65.4481H414.009V121.872H409.75Z" fill="#BA0A2E"/>
<path d="M13.4786 0.976242H3.25996V2.76602L12.181 57.9238H26.3736L31.4829 18.5486H32.4561L37.5654 57.9238H51.6769L60.598 2.76602V0.976242H50.3793L44.5401 44.8259H43.3236L37.2411 0.976242H26.6169L20.5344 44.8259H19.48L13.4786 0.976242Z" fill="#BA0A2E"/>
<path d="M93.3138 10.0879V0.976242H64.3609V57.9238H93.3138V48.8122H74.3363V34.1686C76.1745 33.4635 78.1209 32.9754 80.1755 32.7042C82.23 32.3788 84.1765 32.2432 86.0147 32.2974C87.853 32.2974 89.4209 32.4872 90.7186 32.8669L91.4484 32.3788V23.6739C89.7183 23.457 87.853 23.4028 85.8525 23.5112C83.852 23.5655 81.8516 23.8095 79.8511 24.2434C77.9047 24.6231 76.0664 25.1383 74.3363 25.7891V10.0879H93.3138Z" fill="#BA0A2E"/>
<path d="M97.187 16.3521C95.8893 20.0401 95.2405 24.4061 95.2405 29.45C95.2405 34.494 95.8893 38.86 97.187 42.548C98.5386 46.236 100.35 49.3004 102.621 51.741C104.891 54.1273 107.487 55.9171 110.406 57.1103C113.326 58.2493 116.381 58.8187 119.571 58.8187C122.652 58.8187 125.167 58.4933 127.113 57.8425C129.113 57.1917 130.546 56.4866 131.411 55.7273V46.1276H129.952C129.141 46.9953 127.978 47.7817 126.464 48.4868C124.95 49.1919 123.085 49.5444 120.868 49.5444C117.895 49.5444 115.245 48.7851 112.92 47.2665C110.596 45.6937 108.784 43.4158 107.487 40.4328C106.189 37.4498 105.54 33.7889 105.54 29.45C105.54 25.1112 106.189 21.4503 107.487 18.4673C108.838 15.4843 110.65 13.2335 112.92 11.7149C115.245 10.1421 117.895 9.35568 120.868 9.35568C123.085 9.35568 124.95 9.70821 126.464 10.4133C127.978 11.1183 129.141 11.9048 129.952 12.7725H131.411V3.17279C130.546 2.35926 129.113 1.65419 127.113 1.05759C125.167 0.406767 122.679 0.0813529 119.652 0.0813529C116.516 0.0813529 113.488 0.677947 110.569 1.87114C107.649 3.01009 105.027 4.79987 102.702 7.24048C100.377 9.62685 98.5386 12.6641 97.187 16.3521Z" fill="#BA0A2E"/>
<path d="M175.685 0.976242H165.628V24.9756H146.732V0.976242H136.594V57.9238H146.732V33.9245H165.628V57.9238H175.685V0.976242Z" fill="#BA0A2E"/>
<path fill-rule="evenodd" clip-rule="evenodd" d="M184.025 12.6098C181.808 16.9487 180.7 22.5621 180.7 29.45C180.7 36.338 181.808 41.9514 184.025 46.2903C186.242 50.6291 189.135 53.829 192.703 55.89C196.325 57.8967 200.245 58.9001 204.463 58.9001C208.68 58.9001 212.573 57.8967 216.141 55.89C219.764 53.829 222.683 50.6291 224.9 46.2903C227.117 41.9514 228.225 36.338 228.225 29.45C228.225 22.5621 227.117 16.9487 224.9 12.6098C222.683 8.27096 219.764 5.09816 216.141 3.09144C212.573 1.03048 208.68 0 204.463 0C200.245 0 196.325 1.03048 192.703 3.09144C189.135 5.09816 186.242 8.27096 184.025 12.6098ZM192.784 40.5141C191.595 37.5854 191 33.8974 191 29.45C191 25.0027 191.595 21.3147 192.784 18.3859C193.974 15.4572 195.569 13.2607 197.569 11.7963C199.624 10.2777 201.921 9.51838 204.463 9.51838C206.896 9.51838 209.139 10.2506 211.194 11.7149C213.248 13.1793 214.897 15.3759 216.141 18.3046C217.385 21.2333 218.006 24.9485 218.006 29.45C218.006 33.8974 217.385 37.5854 216.141 40.5141C214.952 43.4429 213.303 45.6665 211.194 47.1852C209.139 48.6495 206.869 49.3817 204.381 49.3817C201.894 49.3817 199.624 48.6495 197.569 47.1852C195.569 45.6665 193.974 43.4429 192.784 40.5141Z" fill="#BA0A2E"/>
<path d="M244.581 0.976242H234.605V57.9238H244.581V0.976242Z" fill="#BA0A2E"/>
<path d="M248.347 16.3521C247.05 20.0401 246.401 24.4061 246.401 29.45C246.401 34.494 247.05 38.86 248.347 42.548C249.699 46.236 251.51 49.3004 253.781 51.741C256.052 54.1273 258.647 55.9171 261.567 57.1103C264.486 58.2493 267.541 58.8187 270.731 58.8187C273.813 58.8187 276.327 58.4933 278.273 57.8425C280.274 57.1917 281.707 56.4866 282.572 55.7273V46.1276H281.112C280.301 46.9953 279.138 47.7817 277.625 48.4868C276.111 49.1919 274.245 49.5444 272.029 49.5444C269.055 49.5444 266.406 48.7851 264.081 47.2665C261.756 45.6937 259.945 43.4158 258.647 40.4328C257.35 37.4498 256.701 33.7889 256.701 29.45C256.701 25.1112 257.35 21.4503 258.647 18.4673C259.999 15.4843 261.81 13.2335 264.081 11.7149C266.406 10.1421 269.055 9.35568 272.029 9.35568C274.245 9.35568 276.111 9.70821 277.625 10.4133C279.138 11.1183 280.301 11.9048 281.112 12.7725H282.572V3.17279C281.707 2.35926 280.274 1.65419 278.273 1.05759C276.327 0.406767 273.84 0.0813529 270.812 0.0813529C267.676 0.0813529 264.649 0.677947 261.729 1.87114C258.809 3.01009 256.187 4.79987 253.862 7.24048C251.537 9.62685 249.699 12.6641 248.347 16.3521Z" fill="#BA0A2E"/>
<path d="M316.707 10.0879V0.976242H287.755V57.9238H316.707V48.8122H297.73V34.1686C299.568 33.4635 301.515 32.9754 303.569 32.7042C305.624 32.3788 307.57 32.2432 309.408 32.2974C311.247 32.2974 312.815 32.4872 314.112 32.8669L314.842 32.3788V23.6739C313.112 23.457 311.247 23.4028 309.246 23.5112C307.246 23.5655 305.245 23.8095 303.245 24.2434C301.298 24.6231 299.46 25.1383 297.73 25.7891V10.0879H316.707Z" fill="#BA0A2E"/>
<path d="M234.639 0.976242L224.888 1.00995V11.0787C228.727 10.4631 230.801 10.3662 234.605 11.0787L234.639 0.976242Z" fill="#BA0A2E"/>
<path d="M279.114 18.02C279.581 18.5709 279.997 19.1907 280.361 19.8748L272.432 29.1779C272.398 29.148 272.363 29.1229 272.329 29.1023L279.114 18.02Z" fill="#BA0A2E"/>
<path d="M275.387 15.4756C276.13 15.7263 276.811 16.0672 277.431 16.4926L272.238 29.055C272.21 29.0437 272.183 29.0348 272.155 29.028L275.387 15.4756Z" fill="#BA0A2E"/>
<path d="M270.796 15.0484C271.215 14.9952 271.646 14.9681 272.091 14.9681C272.447 14.9681 272.793 14.9832 273.13 15.0129L272.046 29.0116C272.023 29.0097 271.995 29.0085 271.962 29.0085C271.929 29.0085 271.901 29.0097 271.878 29.0116L270.796 15.0484Z" fill="#BA0A2E"/>
<path d="M266.591 16.7296C267.199 16.2756 267.86 15.9026 268.57 15.6185L271.769 29.028C271.74 29.0348 271.713 29.0437 271.686 29.055L266.591 16.7296Z" fill="#BA0A2E"/>
<path d="M263.735 20.077C264.101 19.4211 264.512 18.8188 264.966 18.2756L271.594 29.1023C271.561 29.1229 271.526 29.148 271.491 29.1779L263.735 20.077Z" fill="#BA0A2E"/>
<path d="M262.275 23.8096C262.442 23.1651 262.638 22.5476 262.862 21.9601L271.393 29.2763C271.363 29.3113 271.338 29.3463 271.318 29.3797L262.275 23.8096Z" fill="#BA0A2E"/>
<path d="M261.686 27.2608C261.74 26.6844 261.812 26.122 261.903 25.575L271.271 29.4717C271.259 29.499 271.25 29.5262 271.244 29.5546L261.686 27.2608Z" fill="#BA0A2E"/>
<path d="M261.585 30.5844C261.578 30.3093 261.574 30.0311 261.574 29.7497C261.574 29.468 261.578 29.189 261.586 28.9126L271.227 29.6639C271.225 29.6872 271.224 29.7153 271.224 29.7484C271.224 29.7816 271.225 29.8096 271.227 29.833L261.585 30.5844Z" fill="#BA0A2E"/>
<path d="M261.881 33.931C261.795 33.384 261.727 32.8194 261.677 32.2381L271.244 29.9423C271.25 29.9707 271.259 29.9979 271.271 30.0252L261.881 33.931Z" fill="#BA0A2E"/>
<path d="M262.809 37.5819C262.59 36.9905 262.399 36.3662 262.237 35.7109L271.318 30.1171C271.338 30.1506 271.363 30.1856 271.393 30.2206L262.809 37.5819Z" fill="#BA0A2E"/>
<path d="M264.918 41.3008C264.459 40.7582 264.045 40.1525 263.677 39.488L271.491 30.3189C271.526 30.3489 271.561 30.374 271.594 30.3946L264.918 41.3008Z" fill="#BA0A2E"/>
<path d="M268.562 43.9138C267.843 43.6403 267.177 43.2787 266.563 42.8347L271.686 30.4419C271.7 30.4476 271.714 30.4527 271.728 30.4573C271.735 30.4596 271.742 30.4617 271.749 30.4637C271.755 30.4656 271.762 30.4672 271.769 30.4688L268.562 43.9138Z" fill="#BA0A2E"/>
<path d="M273.13 44.4864C272.794 44.5162 272.447 44.5313 272.091 44.5313C271.646 44.5313 271.214 44.5059 270.796 44.4559L271.878 30.4853C271.886 30.486 271.896 30.4866 271.906 30.4871C271.918 30.4877 271.931 30.4881 271.945 30.4883C271.95 30.4883 271.956 30.4884 271.962 30.4884C271.995 30.4884 272.023 30.4871 272.046 30.4853L273.13 44.4864Z" fill="#BA0A2E"/>
<path d="M277.432 43.0062C276.811 43.4318 276.13 43.7728 275.388 44.0236L272.155 30.4688C272.183 30.462 272.21 30.4532 272.238 30.4419L277.432 43.0062Z" fill="#BA0A2E"/>
<path d="M280.362 39.623C279.997 40.3073 279.582 40.9272 279.115 41.4783L272.329 30.3946C272.363 30.374 272.398 30.3489 272.432 30.3189L280.362 39.623Z" fill="#BA0A2E"/>
<path d="M281.746 35.7475C281.596 36.419 281.416 37.0577 281.208 37.6617L272.531 30.2206C272.56 30.1856 272.585 30.1506 272.606 30.1171L281.746 35.7475Z" fill="#BA0A2E"/>
<path d="M282.252 32.2395C282.208 32.8244 282.148 33.3925 282.071 33.9428L272.653 30.0252C272.664 29.9979 272.673 29.9707 272.68 29.9423L282.252 32.2395Z" fill="#BA0A2E"/>
<path d="M282.332 30.5839L272.696 29.833L272.698 29.8142C272.699 29.795 272.699 29.7731 272.699 29.7484C272.699 29.7153 272.698 29.6872 272.696 29.6639L282.332 28.913C282.339 29.1887 282.342 29.4676 282.342 29.7497C282.342 30.0309 282.339 30.309 282.332 30.5839Z" fill="#BA0A2E"/>
<path d="M281.207 21.8358C281.416 22.4396 281.595 23.0783 281.746 23.7496L272.606 29.3797C272.585 29.3463 272.56 29.3113 272.531 29.2763L281.207 21.8358Z" fill="#BA0A2E"/>
<path d="M282.07 25.5542C282.147 26.1045 282.208 26.6725 282.252 27.2574L272.68 29.5546C272.673 29.5262 272.664 29.499 272.653 29.4717L282.07 25.5542Z" fill="#BA0A2E"/>
<path fill-rule="evenodd" clip-rule="evenodd" d="M0 121.234V123.024H10.3809L13.5438 107.404H30.3316L33.4945 123.024H43.8753V121.234L31.3048 66.1575L12.4895 66.0762L0 121.234ZM28.7907 98.6176H15.0036L19.7074 75.5132H24.1679L28.7907 98.6176Z" fill="#BA0A2E"/>
<path d="M51.8454 66.0762H41.6267V67.8659L50.5477 123.024H64.7403L69.8497 83.6486H70.8229L75.9322 123.024H90.0437L98.9647 67.8659V66.0762H88.7461L82.9068 109.926H81.6903L75.6078 66.0762H64.9836L58.9011 109.926H57.8468L51.8454 66.0762Z" fill="#BA0A2E"/>
<path fill-rule="evenodd" clip-rule="evenodd" d="M96.7851 121.234V123.024H107.166L110.329 107.404H127.117L130.28 123.024H140.66V121.234L128.09 66.1575L109.275 66.0762L96.7851 121.234ZM125.576 98.6176H111.789L116.493 75.5132H120.953L125.576 98.6176Z" fill="#BA0A2E"/>
<path fill-rule="evenodd" clip-rule="evenodd" d="M144.273 66.0762L144.111 123.024H154.249V100.896H162.269L170.793 123.024H181.093V121.315L171.582 99.4611C171.944 99.3017 172.303 99.129 172.658 98.9431C175.2 97.6414 177.254 95.6889 178.822 93.0856C180.39 90.4823 181.174 87.2281 181.174 83.3231C181.174 79.4724 180.444 76.2725 178.984 73.7234C177.524 71.1743 175.524 69.2761 172.983 68.0286C170.496 66.727 167.63 66.0762 164.386 66.0762H144.273ZM154.249 92.272V75.1878H163.251C164.765 75.1878 166.089 75.5132 167.225 76.164C168.36 76.8148 169.225 77.7911 169.82 79.0928C170.469 80.3402 170.793 81.8859 170.793 83.7299C170.793 85.5197 170.469 87.0654 169.82 88.3671C169.225 89.6145 168.36 90.5907 167.225 91.2958C166.089 91.9466 164.765 92.272 163.251 92.272H154.249Z" fill="#BA0A2E"/>
<path fill-rule="evenodd" clip-rule="evenodd" d="M213.382 69.1676C209.813 67.1066 205.758 66.0762 201.217 66.0762H185.97V123.024H201.217C205.758 123.024 209.813 122.02 213.382 120.014C216.95 117.953 219.789 114.834 221.897 110.658C224.006 106.428 225.06 101.058 225.06 94.5499C225.06 87.9874 224.006 82.6181 221.897 78.4419C219.789 74.2658 216.95 71.1743 213.382 69.1676ZM211.03 108.624C208.543 111.933 205.217 113.587 201.054 113.587H195.945V75.5132H201.054C205.163 75.5132 208.489 77.1674 211.03 80.4758C213.571 83.7299 214.841 88.4213 214.841 94.5499C214.841 100.57 213.571 105.262 211.03 108.624Z" fill="#BA0A2E"/>
<path d="M259.576 116.841C260.982 114.509 261.685 111.716 261.685 108.461C261.685 105.858 261.279 103.634 260.468 101.79C259.657 99.8922 258.522 98.238 257.062 96.8279C255.656 95.4177 254.034 94.1432 252.196 93.0042L244.735 88.2857C242.68 87.0383 240.95 85.7638 239.544 84.4621C238.192 83.1604 237.517 81.6418 237.517 79.9063C237.517 78.1165 238.165 76.7606 239.463 75.8386C240.815 74.8624 242.464 74.3742 244.41 74.3742C247.059 74.3742 249.574 74.9437 251.952 76.0827C254.331 77.1674 256.305 78.5775 257.873 80.3131H259.17V70.4693C258.251 69.5472 257.035 68.7066 255.521 67.9473C254.007 67.1338 252.25 66.4829 250.249 65.9948C248.303 65.4524 246.086 65.1813 243.599 65.1813C240.625 65.1813 237.895 65.7779 235.408 66.9711C232.975 68.11 231.029 69.8456 229.569 72.1777C228.109 74.4556 227.379 77.303 227.379 80.7198C227.379 83.5401 227.893 85.9536 228.92 87.9603C230.001 89.9128 231.326 91.5399 232.894 92.8415C234.516 94.1432 236.138 95.2821 237.76 96.2584L245.464 100.977C247.519 102.224 249.033 103.418 250.006 104.556C251.033 105.695 251.547 107.133 251.547 108.868C251.547 110.17 251.196 111.255 250.493 112.122C249.79 112.99 248.871 113.668 247.735 114.156C246.6 114.59 245.329 114.807 243.924 114.807C241.49 114.807 238.976 114.21 236.381 113.017C233.786 111.77 231.65 110.36 229.974 108.787H228.596V118.631C229.352 119.227 230.515 119.959 232.083 120.827C233.705 121.695 235.597 122.427 237.76 123.024C239.977 123.675 242.41 124 245.059 124C248.303 124 251.168 123.376 253.656 122.129C256.197 120.881 258.17 119.119 259.576 116.841Z" fill="#BA0A2E"/>
</svg>
